<?xml version="1.0" encoding="UTF-8" standalone="no" ?>
<!DOCTYPE svg PUBLIC "-//W3C//DTD SVG 1.1//EN" "http://www.w3.org/Graphics/SVG/1.1/DTD/svg11.dtd">
<svg xmlns="http://www.w3.org/2000/svg" xmlns:xlink="http://www.w3.org/1999/xlink" version="1.1" width="350" height="350" viewBox="0 0 350 350" xml:space="preserve">
<desc>Created with Fabric.js 1.7.22</desc>
<defs>
</defs>
<g id="icon" style="stroke: none; stroke-width: 1; stroke-dasharray: none; stroke-linecap: butt; stroke-linejoin: miter; stroke-miterlimit: 10; fill: none; fill-rule: nonzero; opacity: 1;" transform="translate(-1.9444444444444287 -1.9444444444444287) scale(3.89 3.89)" >
	<path d="M 59.174 41.672 h -1.768 V 29.868 c 0 -4.063 -3.306 -7.368 -7.368 -7.368 H 39.963 c -4.062 0 -7.368 3.305 -7.368 7.368 v 7.043 c 0 0.552 0.448 1 1 1 s 1 -0.448 1 -1 v -7.043 c 0 -2.96 2.408 -5.368 5.368 -5.368 h 10.074 c 2.96 0 5.368 2.408 5.368 5.368 v 11.804 H 30.826 c -0.552 0 -1 0.448 -1 1 v 17.954 c 0 3.79 3.083 6.873 6.873 6.873 h 16.601 c 3.79 0 6.873 -3.083 6.873 -6.873 V 42.672 C 60.174 42.12 59.726 41.672 59.174 41.672 z" style="stroke: none; stroke-width: 1; stroke-dasharray: none; stroke-linecap: butt; stroke-linejoin: miter; stroke-miterlimit: 10; fill: rgb(115,155,215); fill-rule: nonzero; opacity: 1;" transform=" matrix(1 0 0 1 0 0) " stroke-linecap="round" />
	<path d="M 52.596 49.61 l -7.642 9.832 c -0.182 0.234 -0.458 0.375 -0.753 0.386 c -0.012 0.001 -0.024 0.001 -0.037 0.001 c -0.283 0 -0.553 -0.12 -0.743 -0.33 l -5.971 -6.625 c -0.37 -0.411 -0.337 -1.043 0.073 -1.413 c 0.409 -0.369 1.042 -0.337 1.412 0.073 l 5.171 5.738 l 6.908 -8.889 c 0.339 -0.436 0.969 -0.517 1.403 -0.177 C 52.855 48.546 52.935 49.175 52.596 49.61 z" style="stroke: none; stroke-width: 1; stroke-dasharray: none; stroke-linecap: butt; stroke-linejoin: miter; stroke-miterlimit: 10; fill: rgb(255,255,255); fill-rule: nonzero; opacity: 1;" transform=" matrix(1 0 0 1 0 0) " stroke-linecap="round" />
	<path d="M 51.889 5.266 c -0.194 -0.599 -0.703 -1.027 -1.326 -1.118 l -2.826 -0.411 l -1.265 -2.561 V 1.175 C 46.193 0.611 45.629 0.261 45 0.261 c -0.629 0 -1.194 0.351 -1.473 0.916 l -1.264 2.561 l -2.827 0.411 c -0.623 0.091 -1.131 0.52 -1.326 1.118 c -0.194 0.599 -0.035 1.244 0.416 1.684 l 2.045 1.994 l -0.483 2.815 c -0.106 0.621 0.145 1.236 0.654 1.606 c 0.508 0.37 1.17 0.417 1.729 0.125 L 45 12.161 l 2.528 1.329 c 0.243 0.127 0.505 0.19 0.766 0.19 c 0.339 0 0.676 -0.106 0.964 -0.315 c 0.51 -0.37 0.76 -0.985 0.653 -1.606 l -0.482 -2.815 l 2.046 -1.994 C 51.926 6.51 52.084 5.865 51.889 5.266 z" style="stroke: none; stroke-width: 1; stroke-dasharray: none; stroke-linecap: butt; stroke-linejoin: miter; stroke-miterlimit: 10; fill: rgb(255,209,100); fill-rule: nonzero; opacity: 1;" transform=" matrix(1 0 0 1 0 0) " stroke-linecap="round" />
	<path d="M 51.889 81.325 c -0.193 -0.6 -0.702 -1.028 -1.326 -1.119 l -2.826 -0.411 l -1.265 -2.561 c -0.278 -0.565 -0.843 -0.916 -1.473 -0.916 c -0.629 0 -1.194 0.351 -1.473 0.916 l -1.264 2.561 l -2.828 0.411 c -0.623 0.091 -1.131 0.521 -1.325 1.119 c -0.194 0.599 -0.034 1.243 0.416 1.682 l 2.045 1.995 l -0.483 2.815 c -0.106 0.621 0.145 1.236 0.654 1.606 c 0.288 0.209 0.625 0.315 0.963 0.315 c 0.261 0 0.523 -0.063 0.766 -0.191 L 45 88.219 l 2.528 1.329 c 0.555 0.293 1.219 0.247 1.728 -0.124 c 0.511 -0.37 0.761 -0.985 0.654 -1.606 l -0.482 -2.815 l 2.046 -1.995 C 51.925 82.568 52.084 81.924 51.889 81.325 z" style="stroke: none; stroke-width: 1; stroke-dasharray: none; stroke-linecap: butt; stroke-linejoin: miter; stroke-miterlimit: 10; fill: rgb(255,209,100); fill-rule: nonzero; opacity: 1;" transform=" matrix(1 0 0 1 0 0) " stroke-linecap="round" />
	<path d="M 13.861 43.295 c -0.194 -0.599 -0.703 -1.027 -1.326 -1.118 l -2.827 -0.411 l -1.264 -2.562 C 8.165 38.64 7.6 38.29 6.971 38.29 s -1.194 0.351 -1.473 0.916 l -1.264 2.561 l -2.827 0.411 c -0.623 0.091 -1.131 0.52 -1.326 1.118 c -0.194 0.599 -0.035 1.244 0.416 1.683 l 2.045 1.995 l -0.483 2.815 c -0.106 0.621 0.145 1.236 0.654 1.606 c 0.288 0.209 0.625 0.315 0.963 0.315 c 0.261 0 0.523 -0.063 0.766 -0.191 l 2.528 -1.329 l 2.528 1.329 c 0.558 0.295 1.221 0.247 1.729 -0.124 c 0.51 -0.37 0.76 -0.985 0.654 -1.606 L 11.4 46.973 l 2.045 -1.994 C 13.896 44.54 14.055 43.895 13.861 43.295 z" style="stroke: none; stroke-width: 1; stroke-dasharray: none; stroke-linecap: butt; stroke-linejoin: miter; stroke-miterlimit: 10; fill: rgb(255,209,100); fill-rule: nonzero; opacity: 1;" transform=" matrix(1 0 0 1 0 0) " stroke-linecap="round" />
	<path d="M 89.918 43.295 c -0.194 -0.599 -0.703 -1.027 -1.326 -1.118 l -2.826 -0.411 l -1.265 -2.561 c -0.278 -0.564 -0.843 -0.916 -1.473 -0.916 c -0.63 0 -1.194 0.351 -1.473 0.916 l -1.265 2.561 l -2.826 0.411 c -0.623 0.091 -1.132 0.519 -1.326 1.118 c -0.194 0.599 -0.036 1.244 0.415 1.684 l 2.046 1.994 l -0.482 2.815 c -0.106 0.621 0.144 1.236 0.654 1.606 c 0.287 0.209 0.624 0.315 0.963 0.315 c 0.261 0 0.523 -0.063 0.766 -0.191 l 2.528 -1.329 l 2.528 1.329 c 0.555 0.293 1.22 0.247 1.728 -0.124 c 0.511 -0.37 0.761 -0.985 0.654 -1.606 l -0.482 -2.815 l 2.046 -1.995 C 89.954 44.539 90.113 43.894 89.918 43.295 z" style="stroke: none; stroke-width: 1; stroke-dasharray: none; stroke-linecap: butt; stroke-linejoin: miter; stroke-miterlimit: 10; fill: rgb(255,209,100); fill-rule: nonzero; opacity: 1;" transform=" matrix(1 0 0 1 0 0) " stroke-linecap="round" />
	<path d="M 33.226 10.361 c -0.194 -0.599 -0.703 -1.027 -1.326 -1.118 l -2.827 -0.41 l -1.264 -2.561 l 0 0 c -0.279 -0.564 -0.843 -0.915 -1.473 -0.915 c -0.629 0 -1.194 0.351 -1.473 0.916 l -1.264 2.561 l -2.827 0.41 c -0.623 0.091 -1.131 0.52 -1.326 1.118 c -0.194 0.599 -0.035 1.244 0.416 1.683 l 2.045 1.994 l -0.483 2.816 c -0.106 0.621 0.145 1.236 0.654 1.606 c 0.288 0.209 0.625 0.315 0.963 0.315 c 0.261 0 0.523 -0.063 0.766 -0.19 l 2.528 -1.329 l 2.528 1.329 c 0.559 0.294 1.221 0.247 1.729 -0.124 c 0.51 -0.37 0.76 -0.986 0.654 -1.606 l -0.483 -2.816 l 2.045 -1.994 C 33.261 11.605 33.42 10.96 33.226 10.361 z" style="stroke: none; stroke-width: 1; stroke-dasharray: none; stroke-linecap: butt; stroke-linejoin: miter; stroke-miterlimit: 10; fill: rgb(255,209,100); fill-rule: nonzero; opacity: 1;" transform=" matrix(1 0 0 1 0 0) " stroke-linecap="round" />
	<path d="M 18.955 23.896 c -0.195 -0.599 -0.703 -1.026 -1.325 -1.117 l -2.827 -0.411 l -1.264 -2.561 c -0.278 -0.565 -0.843 -0.916 -1.473 -0.916 c -0.63 0 -1.194 0.351 -1.472 0.915 l -1.265 2.562 l -2.826 0.411 c -0.623 0.09 -1.131 0.518 -1.326 1.117 c -0.195 0.599 -0.036 1.245 0.416 1.685 l 2.045 1.994 L 7.154 30.39 c -0.106 0.621 0.145 1.236 0.654 1.606 c 0.509 0.37 1.171 0.418 1.729 0.125 l 2.528 -1.33 l 2.529 1.33 c 0.243 0.127 0.505 0.19 0.766 0.19 c 0.339 0 0.676 -0.106 0.964 -0.315 c 0.509 -0.37 0.76 -0.985 0.653 -1.606 l -0.483 -2.815 l 2.046 -1.994 C 18.991 25.14 19.151 24.495 18.955 23.896 z" style="stroke: none; stroke-width: 1; stroke-dasharray: none; stroke-linecap: butt; stroke-linejoin: miter; stroke-miterlimit: 10; fill: rgb(255,209,100); fill-rule: nonzero; opacity: 1;" transform=" matrix(1 0 0 1 0 0) " stroke-linecap="round" />
	<path d="M 70.904 10.361 c -0.194 -0.599 -0.703 -1.027 -1.326 -1.118 l -2.826 -0.41 l -1.264 -2.561 c -0.279 -0.565 -0.844 -0.916 -1.474 -0.916 s -1.194 0.351 -1.474 0.916 l -1.264 2.561 l -2.826 0.41 c -0.623 0.091 -1.132 0.519 -1.326 1.118 c -0.194 0.599 -0.036 1.244 0.415 1.684 l 2.046 1.994 l -0.482 2.816 c -0.106 0.621 0.144 1.236 0.654 1.606 c 0.287 0.209 0.624 0.315 0.963 0.315 c 0.261 0 0.523 -0.063 0.765 -0.19 l 2.529 -1.329 l 2.528 1.329 c 0.556 0.293 1.219 0.247 1.729 -0.124 c 0.511 -0.37 0.761 -0.985 0.654 -1.606 l -0.482 -2.816 l 2.046 -1.994 C 70.94 11.604 71.098 10.959 70.904 10.361 z" style="stroke: none; stroke-width: 1; stroke-dasharray: none; stroke-linecap: butt; stroke-linejoin: miter; stroke-miterlimit: 10; fill: rgb(255,209,100); fill-rule: nonzero; opacity: 1;" transform=" matrix(1 0 0 1 0 0) " stroke-linecap="round" />
	<path d="M 84.824 24.282 c -0.194 -0.6 -0.702 -1.028 -1.326 -1.119 l -2.827 -0.411 l -1.264 -2.562 c -0.279 -0.564 -0.844 -0.914 -1.473 -0.914 c -0.001 0 -0.001 0 -0.002 0 c -0.629 0 -1.192 0.352 -1.471 0.916 l -1.265 2.561 l -2.826 0.411 c -0.623 0.091 -1.132 0.519 -1.326 1.118 c -0.194 0.599 -0.036 1.244 0.415 1.684 l 2.046 1.994 l -0.482 2.815 c -0.106 0.621 0.144 1.236 0.653 1.606 c 0.288 0.209 0.625 0.315 0.964 0.315 c 0.261 0 0.522 -0.063 0.766 -0.19 l 2.528 -1.33 l 2.528 1.33 c 0.557 0.293 1.222 0.245 1.729 -0.125 c 0.51 -0.37 0.76 -0.985 0.653 -1.606 l -0.482 -2.815 l 2.044 -1.993 C 84.858 25.526 85.018 24.881 84.824 24.282 z" style="stroke: none; stroke-width: 1; stroke-dasharray: none; stroke-linecap: butt; stroke-linejoin: miter; stroke-miterlimit: 10; fill: rgb(255,209,100); fill-rule: nonzero; opacity: 1;" transform=" matrix(1 0 0 1 0 0) " stroke-linecap="round" />
	<path d="M 18.197 62.692 c -0.195 -0.598 -0.703 -1.025 -1.325 -1.115 l -2.828 -0.412 l -1.263 -2.561 h 0 c -0.279 -0.565 -0.843 -0.916 -1.473 -0.916 h 0 c -0.63 0.001 -1.194 0.352 -1.472 0.916 l -1.264 2.561 l -2.827 0.412 c -0.623 0.09 -1.131 0.518 -1.326 1.116 c -0.195 0.599 -0.036 1.244 0.416 1.685 l 2.045 1.994 l -0.483 2.815 c -0.106 0.621 0.145 1.236 0.654 1.606 c 0.288 0.209 0.625 0.315 0.963 0.315 c 0.261 0 0.523 -0.063 0.766 -0.191 l 2.528 -1.329 l 2.528 1.329 c 0.557 0.294 1.221 0.246 1.73 -0.125 c 0.509 -0.37 0.759 -0.985 0.653 -1.605 l -0.483 -2.815 l 2.046 -1.995 C 18.234 63.937 18.392 63.291 18.197 62.692 z" style="stroke: none; stroke-width: 1; stroke-dasharray: none; stroke-linecap: butt; stroke-linejoin: miter; stroke-miterlimit: 10; fill: rgb(255,209,100); fill-rule: nonzero; opacity: 1;" transform=" matrix(1 0 0 1 0 0) " stroke-linecap="round" />
	<path d="M 84.824 62.312 c -0.193 -0.6 -0.701 -1.029 -1.326 -1.12 l -2.827 -0.411 l -1.264 -2.561 c -0.279 -0.564 -0.844 -0.915 -1.473 -0.915 c -0.001 0 -0.001 0 -0.002 0 c -0.629 0.001 -1.192 0.352 -1.471 0.916 l -1.265 2.561 l -2.827 0.411 c -0.623 0.091 -1.132 0.52 -1.325 1.119 c -0.194 0.599 -0.035 1.243 0.415 1.682 l 2.046 1.995 l -0.482 2.815 c -0.106 0.621 0.144 1.236 0.654 1.606 c 0.287 0.209 0.624 0.315 0.963 0.315 c 0.261 0 0.523 -0.063 0.766 -0.191 l 2.528 -1.329 l 2.527 1.329 c 0.56 0.295 1.221 0.246 1.73 -0.124 c 0.51 -0.37 0.76 -0.985 0.653 -1.606 l -0.482 -2.815 l 2.044 -1.994 C 84.858 63.555 85.018 62.91 84.824 62.312 z" style="stroke: none; stroke-width: 1; stroke-dasharray: none; stroke-linecap: butt; stroke-linejoin: miter; stroke-miterlimit: 10; fill: rgb(255,209,100); fill-rule: nonzero; opacity: 1;" transform=" matrix(1 0 0 1 0 0) " stroke-linecap="round" />
	<path d="M 33.226 75.376 c -0.194 -0.599 -0.702 -1.028 -1.327 -1.119 l -2.827 -0.411 l -1.264 -2.561 c -0.279 -0.565 -0.843 -0.916 -1.473 -0.916 c -0.629 0 -1.194 0.351 -1.473 0.916 l -1.264 2.561 l -2.828 0.411 c -0.623 0.091 -1.131 0.521 -1.325 1.119 c -0.194 0.599 -0.034 1.243 0.416 1.682 l 2.045 1.995 l -0.483 2.815 c -0.106 0.621 0.145 1.236 0.654 1.606 c 0.288 0.209 0.625 0.315 0.963 0.315 c 0.261 0 0.523 -0.063 0.766 -0.191 l 2.528 -1.329 l 2.528 1.329 c 0.559 0.295 1.221 0.246 1.729 -0.124 c 0.51 -0.37 0.76 -0.985 0.654 -1.606 l -0.483 -2.815 l 2.044 -1.994 C 33.26 76.619 33.42 75.975 33.226 75.376 z" style="stroke: none; stroke-width: 1; stroke-dasharray: none; stroke-linecap: butt; stroke-linejoin: miter; stroke-miterlimit: 10; fill: rgb(255,209,100); fill-rule: nonzero; opacity: 1;" transform=" matrix(1 0 0 1 0 0) " stroke-linecap="round" />
	<path d="M 70.904 75.376 c -0.193 -0.6 -0.702 -1.028 -1.326 -1.119 l -2.826 -0.411 l -1.264 -2.561 c -0.279 -0.564 -0.844 -0.916 -1.474 -0.916 s -1.194 0.352 -1.474 0.916 l -1.264 2.561 l -2.827 0.411 c -0.623 0.091 -1.132 0.52 -1.325 1.119 c -0.194 0.599 -0.035 1.243 0.415 1.682 l 2.046 1.995 l -0.482 2.815 c -0.106 0.621 0.144 1.236 0.654 1.606 c 0.287 0.209 0.624 0.315 0.963 0.315 c 0.261 0 0.523 -0.063 0.766 -0.191 l 2.528 -1.329 l 2.528 1.329 c 0.556 0.293 1.219 0.247 1.729 -0.124 c 0.511 -0.37 0.761 -0.985 0.654 -1.606 l -0.482 -2.815 l 2.046 -1.995 C 70.939 76.619 71.098 75.975 70.904 75.376 z" style="stroke: none; stroke-width: 1; stroke-dasharray: none; stroke-linecap: butt; stroke-linejoin: miter; stroke-miterlimit: 10; fill: rgb(255,209,100); fill-rule: nonzero; opacity: 1;" transform=" matrix(1 0 0 1 0 0) " stroke-linecap="round" />
</g>
</svg>